<?xml version="1.0" encoding="UTF-8" standalone="no"?>
<!-- Created with Inkscape (http://www.inkscape.org/) -->

<svg
   xmlns:dc="http://purl.org/dc/elements/1.1/"
   xmlns:cc="http://creativecommons.org/ns#"
   xmlns:rdf="http://www.w3.org/1999/02/22-rdf-syntax-ns#"
   xmlns:svg="http://www.w3.org/2000/svg"
   xmlns="http://www.w3.org/2000/svg"
   xmlns:sodipodi="http://sodipodi.sourceforge.net/DTD/sodipodi-0.dtd"
   xmlns:inkscape="http://www.inkscape.org/namespaces/inkscape"
   width="96.219582mm"
   height="15.414354mm"
   viewBox="0 0 340.93553 54.61779"
   id="svg4414"
   version="1.1"
   inkscape:version="0.91 r13725"
   sodipodi:docname="logo-udc.svg">
  <defs
     id="defs4416">
    <clipPath
       id="clipPath4183"
       clipPathUnits="userSpaceOnUse">
      <path
         inkscape:connector-curvature="0"
         id="path4185"
         d="M 0,469.492 0,0 l 3793.15,0 0,469.492" />
    </clipPath>
  </defs>
  <sodipodi:namedview
     id="base"
     pagecolor="#ffffff"
     bordercolor="#666666"
     borderopacity="1.0"
     inkscape:pageopacity="0.0"
     inkscape:pageshadow="2"
     inkscape:zoom="1.4"
     inkscape:cx="175.754"
     inkscape:cy="-73.452833"
     inkscape:document-units="px"
     inkscape:current-layer="layer1"
     showgrid="false"
     fit-margin-top="2"
     fit-margin-left="2"
     fit-margin-right="2"
     fit-margin-bottom="2"
     inkscape:window-width="1364"
     inkscape:window-height="747"
     inkscape:window-x="0"
     inkscape:window-y="19"
     inkscape:window-maximized="1" />
  <metadata
     id="metadata4419">
    <rdf:RDF>
      <cc:Work
         rdf:about="">
        <dc:format>image/svg+xml</dc:format>
        <dc:type
           rdf:resource="http://purl.org/dc/dcmitype/StillImage" />
        <dc:title></dc:title>
      </cc:Work>
    </rdf:RDF>
  </metadata>
  <g
     inkscape:label="Capa 1"
     inkscape:groupmode="layer"
     id="layer1"
     transform="translate(-35.246486,-42.196167)">
    <g
       transform="matrix(0.08614537,0,0,-0.08614537,42.3331,89.727343)"
       clip-path="url(#clipPath4183)"
       id="g4181">
      <path
         inkscape:connector-curvature="0"
         id="path4187"
         style="fill:#231f20;fill-opacity:1;fill-rule:nonzero;stroke:none"
         d="m 1180.04,211.469 c 0,-17.449 -0.99,-27.024 -7.05,-39.449 -7.34,-14.575 -22.7,-27.184 -48.24,-27.184 -25.46,0 -40.89,12.609 -48.2,27.184 -6.09,12.425 -7.13,22 -7.13,39.449 l 0,111.324 22.25,0 0,-114.598 c 0,-27.519 12.09,-45.207 33.08,-45.207 20.94,0 33.12,17.688 33.12,45.207 l 0,114.598 22.17,0 0,-111.324" />
      <path
         inkscape:connector-curvature="0"
         id="path4189"
         style="fill:#231f20;fill-opacity:1;fill-rule:nonzero;stroke:none"
         d="m 1218.87,322.793 27.58,0 66.42,-145.453 0.49,0 0,145.453 21.18,0 0,-176.215 -27.49,0 -66.41,144.383 -0.5,0 0,-144.383 -21.27,0 0,176.215" />
      <path
         inkscape:connector-curvature="0"
         id="path4191"
         style="fill:#231f20;fill-opacity:1;fill-rule:nonzero;stroke:none"
         d="m 1373.41,146.578 22.2227,0 0,176.215 -22.2227,0 0,-176.215 z" />
      <path
         inkscape:connector-curvature="0"
         id="path4193"
         style="fill:#231f20;fill-opacity:1;fill-rule:nonzero;stroke:none"
         d="m 1417.3,322.793 24.25,0 40.95,-143.617 0.46,0 43.18,143.617 22.23,0 -55.28,-176.215 -22.22,0 -53.57,176.215" />
      <path
         inkscape:connector-curvature="0"
         id="path4195"
         style="fill:#231f20;fill-opacity:1;fill-rule:nonzero;stroke:none"
         d="m 1570.1,322.793 82.03,0 0,-19.227 -59.87,0 0,-56.011 57.12,0 0,-19.16 -57.12,0 0,-62.622 63.14,0 0,-19.195 -85.3,0 0,176.215" />
      <path
         inkscape:connector-curvature="0"
         id="path4197"
         style="fill:#231f20;fill-opacity:1;fill-rule:nonzero;stroke:none"
         d="m 1686.96,146.578 22.22,0 0,79.797 10.11,0 c 16.7,0 22.95,-5.539 28,-20.199 l 20.23,-59.598 24,0 -24.86,70.676 c -3.43,10.07 -8.51,15.18 -19.1,17.141 l 0,0.488 c 26.02,5.574 34.87,23.566 34.87,42.238 0,12.856 -4.07,24.945 -13.14,33.516 -8.08,7.652 -18.45,12.156 -37.12,12.156 l -45.21,0 0,-176.215 z m 22.22,158.031 17.69,0 c 19.41,0 32.26,-9.367 32.26,-29.046 0,-15.364 -9.06,-31.004 -32.75,-31.004 l -17.2,0 0,60.05" />
      <path
         inkscape:connector-curvature="0"
         id="path4199"
         style="fill:#231f20;fill-opacity:1;fill-rule:nonzero;stroke:none"
         d="m 1890.69,297.293 c -8.33,5.051 -19.17,8.051 -30,8.051 -16.71,0 -27.61,-11.324 -27.61,-26.231 0,-11.355 4.66,-18.394 29.87,-33.09 27.24,-15.609 36.31,-31 36.31,-51.203 0,-28.039 -17.39,-49.984 -51.24,-49.984 -14.11,0 -27.49,3 -36.79,7.527 l 0,23.02 c 10.01,-6.121 23.14,-11.387 33.51,-11.387 19.96,0 31.31,13.344 31.31,27.793 0,13.652 -3.54,21.426 -27.24,35.871 -31.83,19.16 -38.87,29.996 -38.87,52.711 0,29.012 22.17,44.192 48.97,44.192 11.57,0 24,-2.536 31.78,-5.844 l 0,-21.426" />
      <path
         inkscape:connector-curvature="0"
         id="path4201"
         style="fill:#231f20;fill-opacity:1;fill-rule:nonzero;stroke:none"
         d="m 1930.07,146.578 22.1953,0 0,176.215 -22.1953,0 0,-176.215 z" />
      <path
         inkscape:connector-curvature="0"
         id="path4203"
         style="fill:#231f20;fill-opacity:1;fill-rule:nonzero;stroke:none"
         d="m 1988.63,146.578 27.55,0 c 66.11,0 90.29,39.887 90.29,90.875 0,39.668 -16.9,61.86 -32.51,72.664 -10.1,7.102 -23.5,12.676 -46.98,12.676 l -38.35,0 0,-176.215 z m 22.16,156.988 13.44,0 c 43.37,0 59.04,-29.199 59.04,-66.113 0,-45.176 -20.2,-71.68 -59.04,-71.68 l -13.44,0 0,137.793" />
      <path
         inkscape:connector-curvature="0"
         id="path4205"
         style="fill:#231f20;fill-opacity:1;fill-rule:nonzero;stroke:none"
         d="m 2173.2,322.793 -59.07,-176.215 22.09,0 14.26,45.945 67.13,0 14.14,-45.945 23.17,0 -57.48,176.215 -24.24,0 z m -16.72,-111.047 27.8,87.844 0.51,0 27.03,-87.844 -55.34,0" />
      <path
         inkscape:connector-curvature="0"
         id="path4207"
         style="fill:#231f20;fill-opacity:1;fill-rule:nonzero;stroke:none"
         d="m 2273.9,146.578 27.55,0 c 66.17,0 90.32,39.887 90.32,90.875 0,39.668 -16.87,61.86 -32.54,72.664 -10.03,7.102 -23.44,12.676 -46.98,12.676 l -38.35,0 0,-176.215 z m 22.22,156.988 13.37,0 c 43.44,0 59.05,-29.199 59.05,-66.113 0,-45.176 -20.15,-71.68 -59.05,-71.68 l -13.37,0 0,137.793" />
      <path
         inkscape:connector-curvature="0"
         id="path4209"
         style="fill:#231f20;fill-opacity:1;fill-rule:nonzero;stroke:none"
         d="m 2421.39,322.793 82,0 0,-19.227 -59.84,0 0,-56.011 57.09,0 0,-19.16 -57.09,0 0,-62.622 63.03,0 0,-19.195 -85.19,0 0,176.215" />
      <path
         inkscape:connector-curvature="0"
         id="path4211"
         style="fill:#231f20;fill-opacity:1;fill-rule:nonzero;stroke:none"
         d="m 2596.32,146.578 27.48,0 c 66.12,0 90.36,39.887 90.36,90.875 0,39.668 -16.93,61.86 -32.53,72.664 -10.13,7.102 -23.49,12.676 -46.99,12.676 l -38.32,0 0,-176.215 z m 22.22,156.988 13.35,0 c 43.4,0 59.07,-29.199 59.07,-66.113 0,-45.176 -20.2,-71.68 -59.07,-71.68 l -13.35,0 0,137.793" />
      <path
         inkscape:connector-curvature="0"
         id="path4213"
         style="fill:#231f20;fill-opacity:1;fill-rule:nonzero;stroke:none"
         d="m 2780.85,322.793 -59.04,-176.215 22.23,0 14.13,45.945 67.16,0 14.08,-45.945 23.32,0 -57.67,176.215 -24.21,0 z m -16.65,-111.047 27.74,87.844 0.51,0 27.06,-87.844 -55.31,0" />
      <path
         inkscape:connector-curvature="0"
         id="path4215"
         style="fill:#231f20;fill-opacity:1;fill-rule:nonzero;stroke:none"
         d="m 3048.67,150.098 c -10.59,-3.274 -21.67,-5.262 -32.04,-5.262 -55.74,0 -79.28,42.422 -79.28,90.047 0,55.094 32.11,89.68 78.03,89.68 12.6,0 25.18,-2.293 33.29,-6.274 l 0,-21.789 c -9.61,6.09 -20.69,8.844 -33.12,8.844 -28.67,0 -55,-22.953 -55,-65.805 0,-45.519 18.15,-75.543 56.66,-75.543 11.29,0 22.37,3.063 31.46,8.328 l 0,-22.226" />
      <path
         inkscape:connector-curvature="0"
         id="path4217"
         style="fill:#231f20;fill-opacity:1;fill-rule:nonzero;stroke:none"
         d="m 3072.97,232.926 c 0,-54.543 24.95,-88.09 64.1,-88.09 41.62,0 66.05,30.789 66.05,91.613 0,54.512 -24.98,88.114 -64.06,88.114 -41.66,0 -66.09,-30.821 -66.09,-91.637 z m 23.14,0 c 0,54.238 19.71,73.461 42.95,73.461 29.84,0 40.92,-34.344 40.92,-69.938 0,-54.269 -19.71,-73.461 -42.91,-73.461 -29.87,0 -40.96,34.371 -40.96,69.938" />
      <path
         inkscape:connector-curvature="0"
         id="path4219"
         style="fill:#231f20;fill-opacity:1;fill-rule:nonzero;stroke:none"
         d="m 3234.77,146.578 22.1,0 0,79.797 10.22,0 c 16.65,0 22.84,-5.539 27.98,-20.199 l 20.14,-59.598 24.05,0 -24.73,70.676 c -3.61,10.07 -8.57,15.18 -19.19,17.141 l 0,0.488 c 25.92,5.574 34.8,23.566 34.8,42.238 0,12.856 -4.04,24.945 -13.12,33.516 -8.03,7.652 -18.41,12.156 -37.13,12.156 l -45.12,0 0,-176.215 z m 22.1,158.031 17.75,0 c 19.47,0 32.32,-9.367 32.32,-29.046 0,-15.364 -9.12,-31.004 -32.87,-31.004 l -17.2,0 0,60.05" />
      <path
         inkscape:connector-curvature="0"
         id="path4221"
         style="fill:#231f20;fill-opacity:1;fill-rule:nonzero;stroke:none"
         d="m 3476.33,211.469 c 0,-17.449 -1.04,-27.024 -7.04,-39.449 -7.41,-14.575 -22.81,-27.184 -48.3,-27.184 -25.47,0 -40.9,12.609 -48.18,27.184 -6.12,12.425 -7.04,22 -7.04,39.449 l 0,111.324 22.16,0 0,-114.598 c 0,-27.519 12.15,-45.207 33.06,-45.207 21.02,0 33.18,17.688 33.18,45.207 l 0,114.598 22.16,0 0,-111.324" />
      <path
         inkscape:connector-curvature="0"
         id="path4223"
         style="fill:#231f20;fill-opacity:1;fill-rule:nonzero;stroke:none"
         d="m 3515.16,322.793 27.59,0 66.35,-145.453 0.49,0 0,145.453 21.25,0 0,-176.215 -27.55,0 -66.39,144.383 -0.46,0 0,-144.383 -21.28,0 0,176.215 z m 94.68,41.406 c -2.82,-16.679 -9.25,-27.023 -21.43,-27.023 -4.03,0 -8.08,0.765 -17.39,5.234 -7.89,3.887 -9.39,4.317 -11.87,4.317 -4.56,0 -9.12,-2.758 -9.86,-10.84 l -13.16,0 c 1.75,17.207 9.89,27.058 23.97,27.058 4.62,0 9.12,-1.281 19.25,-6.304 5.03,-2.571 7.01,-3.27 8.78,-3.27 4.57,0 7.14,3.762 8.55,10.828 l 13.16,0" />
      <path
         inkscape:connector-curvature="0"
         id="path4225"
         style="fill:#231f20;fill-opacity:1;fill-rule:nonzero;stroke:none"
         d="m 3711.33,322.793 -59.01,-176.215 22.22,0 14.11,45.945 67.18,0 14.09,-45.945 23.23,0 -57.61,176.215 -24.21,0 z m -16.65,-111.047 27.73,87.844 0.49,0 27.09,-87.844 -55.31,0" />
      <path
         inkscape:connector-curvature="0"
         id="path4227"
         style="fill:#d7058d;fill-opacity:1;fill-rule:nonzero;stroke:none"
         d="m 480.41,237.883 351.832,158.769 c -88.547,44.848 -213.383,72.84 -351.828,72.84 -138.476,0 -263.305,-27.992 -351.84,-72.836 L 480.41,237.883" />
      <path
         inkscape:connector-curvature="0"
         id="path4229"
         style="fill:#d7058d;fill-opacity:1;fill-rule:nonzero;stroke:none"
         d="m 959.789,273.695 c -9.801,28.332 -30.121,54.942 -58.949,78.871 l -393.281,-112.773 452.23,33.902" />
      <path
         inkscape:connector-curvature="0"
         id="path4231"
         style="fill:#d7058d;fill-opacity:1;fill-rule:nonzero;stroke:none"
         d="m 903.133,118.863 c 28.551,24.231 48.523,51.114 57.691,79.742 l -453.722,31.68 396.031,-111.422" />
      <path
         inkscape:connector-curvature="0"
         id="path4233"
         style="fill:#d7058d;fill-opacity:1;fill-rule:nonzero;stroke:none"
         d="M 480.438,231.766 126.152,74.0742 C 214.82,28.5 340.668,0 480.414,0 620.133,0 745.988,28.5 834.668,74.0742 L 480.438,231.766" />
      <path
         inkscape:connector-curvature="0"
         id="path4235"
         style="fill:#d7058d;fill-opacity:1;fill-rule:nonzero;stroke:none"
         d="M 0,198.605 C 9.16797,169.977 29.1328,143.094 57.6758,118.863 L 453.707,230.285 0,198.605" />
      <path
         inkscape:connector-curvature="0"
         id="path4237"
         style="fill:#d7058d;fill-opacity:1;fill-rule:nonzero;stroke:none"
         d="M 453.254,239.793 59.9922,352.582 C 31.1563,328.645 10.832,302.039 1.03125,273.695 L 453.254,239.793" />
    </g>
  </g>
</svg>
